<svg
     xmlns:dc="http://purl.org/dc/elements/1.1/"
     xmlns:cc="http://creativecommons.org/ns#"
     xmlns:rdf="http://www.w3.org/1999/02/22-rdf-syntax-ns#"
     xmlns:svg="http://www.w3.org/2000/svg"
     xmlns="http://www.w3.org/2000/svg"
     id="listingBoat"
     version="1.1"
     viewbox="0 0 79.999999 90.000001"
     height="90px"
     width="80px">
  <defs
     id="defs3713" />
  <g
     transform="translate(-93.178547,-96.481)"
     id="layer1">
    <path
       id="path3721"
       d="m 10.481742,196.81816 c 1.670275,-6.58209 -0.454863,-16.57057 4.191419,-21.21906 2.328718,-1.33037 3.6533,-2.42751 6.025165,-4.19142 5.087445,-3.62293 10.166627,-8.05354 13.884076,-12.83622 1.83243,-2.82123 4.20669,-4.62713 5.763202,-7.59695 1.618731,-1.90653 3.17929,-5.0214 4.453382,-6.81105 0.875071,-1.28491 1.326538,-2.40206 2.357673,-3.40553 0.349037,-0.77007 2.325737,-4.62475 1.309819,-1.04785 -0.448225,4.20357 -1.138684,9.4915 0.261964,13.62211 0.414293,3.08257 1.319065,5.98133 2.881601,8.38283 1.202848,2.57532 3.988036,5.89594 6.549091,7.07303 0.628639,1.0106 3.39587,2.18026 4.060423,2.8692 2.873759,1.42135 6.763446,2.76858 10.085618,1.84614 2.822761,-0.59514 6.211512,-2.87142 8.906763,-4.71534 2.930141,-2.35247 6.055859,-4.26698 8.464207,-6.83401 1.622998,-1.39637 4.52203,-4.22348 5.943798,-6.26418 2.805932,-2.29045 5.159287,-4.43957 7.858907,-7.07302 0.95516,-1.31789 4.64445,-6.62451 2.8816,-2.61964 -1.40972,4.54798 -2.05475,9.85687 -1.83374,15.1939 0.72717,3.10811 0.91237,6.28127 2.35767,9.16873 0.8041,2.50405 1.87773,3.98148 3.40553,6.28713 2.00657,2.39487 4.30983,3.90609 7.33499,4.45338 5.01308,0.33265 9.41525,-0.60474 13.88407,-2.09571 3.84073,-1.28505 7.25169,-3.04321 10.56535,-5.34037 2.07405,-1.1201 6.08754,-4.23146 8.558,-6.70996 5.2489,-5.04709 9.27153,-10.2283 14.40801,-15.1939 1.97855,-2.30689 1.10104,4.8858 2.61963,6.5491 0.59476,3.79047 3.03508,7.38984 4.94922,10.59483 1.05113,1.67186 2.64603,3.6672 3.95755,5.64692 1.7269,1.63622 3.70886,4.41203 6.28713,5.7632 2.7021,1.8327 5.78753,2.62281 9.43069,2.8816 6.2348,0.93341 13.08936,0.3706 19.64728,0.52393 3.62861,-0.31848 7.23568,-0.70864 9.95462,-2.09571 5.94995,-3.59698 -0.36231,8.9988 0.38476,12.607 l -0.20773,1.87468 0.0849,0.71221"
       style="fill:#0000ff;stroke:#000000;stroke-width:0.26458332px;stroke-linecap:butt;stroke-linejoin:miter;stroke-opacity:1" />
    <path
       id="path3723"
       d="m 10.481742,196.81816 c 70.555555,0 141.111118,0 211.666668,0"
       style="fill:#0000ff;stroke:#000000;stroke-width:0.26458332px;stroke-linecap:butt;stroke-linejoin:miter;stroke-opacity:1" />
    <path
       id="path3725"
       d="m 107.2528,136.19403 c -0.9757,3.62312 -0.95337,7.84384 -0.86972,10.63127 0.1162,4.26637 1.07043,9.67174 2.37659,14.18889 0.55456,2.86636 2.15181,6.30721 3.38205,8.5262 2.14808,2.79807 6.04655,5.16002 9.75973,5.36857 3.28547,0.67569 5.80093,0.21313 9.26559,-0.58459 5.28,-2.27965 10.12961,-4.66554 15.217,-7.21119 2.72748,-1.41303 4.96172,-3.46683 7.00395,-4.50066 0.45014,-0.51971 1.12595,-0.5828 1.45436,-1.36567"
       style="fill:#552200;stroke:#000000;stroke-width:0.26458332px;stroke-linecap:butt;stroke-linejoin:miter;stroke-opacity:1" />
    <path
       id="path3729"
       d="m 107.2528,136.19403 c 2.53839,3.00414 7.09786,5.1224 10.49914,8.166 4.94447,2.90859 9.99268,5.97015 15.15455,8.70177 6.93908,3.23575 13.87817,6.47149 20.81725,9.70724"
       style="fill:none;stroke:#000000;stroke-width:0.26458332px;stroke-linecap:butt;stroke-linejoin:miter;stroke-opacity:1" />
    <path
       id="path3731"
       d="m 149.56881,113.82287 c -3.85692,5.02649 -6.26937,11.61546 -9.64117,17.16911 -3.39231,7.27486 -6.78464,14.54971 -10.17696,21.82456"
       style="fill:none;stroke:#000000;stroke-width:0.26458332px;stroke-linecap:butt;stroke-linejoin:miter;stroke-opacity:1" />
    <path
       id="path3733"
       d="m 168.44661,149.60463 c -3.48781,-0.72076 -9.15852,-2.95065 -12.57977,-5.45727 -4.45213,-2.35624 -8.29406,-5.36419 -12.80422,-7.60579 -5.15483,-3.19219 -10.2007,-6.45506 -15.6695,-9.35067 -5.80749,-4.08427 -12.69337,-7.13296 -19.34027,-10.24483 -4.7456,-0.81673 -5.46303,-2.48572 -1.09779,-3.78207 1.95373,-0.0847 6.21214,-2.81311 9.51085,-3.7404 4.8731,-1.96637 10.43729,-2.83781 15.62064,-4.57033 5.22141,-1.96921 10.81782,-3.08309 15.74699,-5.779688 4.13841,-1.41824 7.6131,-3.26032 11.52918,-1.14207 0.19126,2.767988 -0.47183,8.724098 1.05999,12.777278 1.1254,4.70352 2.52502,9.34839 3.85354,13.65131 1.06457,2.11684 2.20992,5.70641 3.20286,8.03386 0.69665,1.48273 2.11605,3.2014 2.28426,4.74412 2.27366,3.59138 -0.13413,7.73955 -2.48066,12.3327"
       style="fill:#ffffff;stroke:#000000;stroke-width:0.26458332px;stroke-linecap:butt;stroke-linejoin:miter;stroke-opacity:1" />
  </g>
</svg>